<?xml version="1.0" encoding="UTF-8"?>
<svg xmlns="http://www.w3.org/2000/svg" xmlns:xlink="http://www.w3.org/1999/xlink" width="24px" height="24px" viewBox="0 0 24 24" version="1.1">
  <title>Linkedin_white</title>
  <g id="Linkedin_white" stroke="none" stroke-width="1" fill="none" fill-rule="evenodd">
    <g id="linkedin" transform="translate(1.000000, 1.000000)" fill-rule="nonzero">
      <rect id="Rectangle" x="0" y="0" width="22" height="22"></rect>
      <path d="M15.6880168,19 L15.6880168,13.8035225 C15.6880168,12.5643553 15.6628625,10.969674 13.9626179,10.969674 C12.2362874,10.969674 11.972633,12.3180148 11.972633,13.7120779 L11.972633,19 L8.66158146,19 L8.66158146,8.3140491 L11.8422033,8.3140491 L11.8422033,9.77063043 L11.8850588,9.77063043 C12.3294515,8.93083338 13.4101549,8.04438094 15.0246885,8.04438094 C18.3795272,8.04438094 19,10.2558465 19,13.1344842 L19,19 L15.6880168,19 Z M4.92197508,6.85186913 C3.85617794,6.85186913 3,5.98781128 3,4.92500146 C3,3.86312474 3.85710958,3 4.92197508,3 C5.98404565,3 6.8448818,3.86312474 6.8448818,4.92500146 C6.8448818,5.98781128 5.98311401,6.85186913 4.92197508,6.85186913 Z M6.58215908,19 L3.26179108,19 L3.26179108,8.3140491 L6.58215908,8.3140491 L6.58215908,19 Z" id="Shape" fill="#FFFFFF"></path>
    </g>
  </g>
</svg>
