<svg xmlns="http://www.w3.org/2000/svg" xml:space="preserve" id="Ebene_1" x="0" y="0" style="enable-background:new 0 0 1005 124" version="1.1" viewBox="0 0 1005 124"><style>.st0{fill:#1d1d1b}.st1{fill:#eadfcf}.st2{enable-background:new}.st3{fill:#211f58}.st4{fill:#6f3877}.st5{fill:#008a44}.st6{fill:#f1cc0e}.st7{fill:#ed8c1f}.st9{fill:#d88786}.st10{fill:#5dbedc}.st11{fill:#5ec5e7}</style><path d="M188.9 124c-2.5 0-4.9-.2-7.4-.5-14.6-1.9-28.4-9.5-36.4-22.8-4.5-7.4-7.2-16.7-7.2-27.7V7.8H169v68c0 14.2 11.3 19.8 19.8 19.8 7.4 0 17.1-4.3 19.3-14.9.3-1.5.5-3.2.5-4.9v-68h31.2V73c0 8.4-1.6 15.7-4.3 22.1-8.2 19.3-27.4 28.9-46.6 28.9z" class="st0"/><path d="M188.9 124c-2.5 0-4.9-.2-7.4-.5-14.6-1.9-28.4-9.5-36.4-22.8-4.5-7.4-7.2-16.7-7.2-27.7V7.8H169v68c0 14.2 11.3 19.8 19.8 19.8 7.4 0 17.1-4.3 19.3-14.9.3-1.5.5-3.2.5-4.9v-68h31.2V73c0 8.4-1.6 15.7-4.3 22.1-8.2 19.3-27.4 28.9-46.6 28.9zM79.8 7.8v42.5H40.1V7.8H9v113.4h31.1V75.8h39.7v45.4h31.1V7.8z" class="st0"/><path d="M181.5 123.5c-14.6-1.9-28.4-9.5-36.4-22.8M319.2 124c-32.6 0-59.5-25.5-59.5-59.5 0-5.6.7-11 2.1-16.1 5.1-18.8 18.9-33.3 36.6-39.8 6.5-2.4 13.5-3.6 20.8-3.6C341.8 5 356 16.3 356 16.3l-10.6 13.2-7.1 8.8s-6.4-5.7-19.1-5.7c-17 0-29 14.9-29 31.9s12 31.2 29 31.2c14.2 0 21.2-5.7 21.2-5.7V75.9h-24.1V51.1h51v53.1S351.7 124 319.2 124z" class="st0"/><path d="M367.3 97.6v6.6S351.7 124 319.1 124s-59.5-25.5-59.5-59.5c0-5.6.7-11 2.1-16.1L290 64.5c0 17 12 31.2 29 31.2 14.2 0 21.2-5.7 21.2-5.7v-5.6l27.1 13.2z" class="st1"/><g class="st2"><path d="M430 6.9c4.9-1.3 10-1.9 15.2-1.9 21.6 0 40.7 11.2 51.1 28.6L430 6.9z" class="st3"/></g><g class="st2"><path d="M496.3 33.6c5.3 8.9 8.4 19.4 8.4 30.9 0 10.4-2.5 20.1-7 28.4l-28.2-11.1c3-5 4.7-11 4.7-17.3 0-17-12-31.2-29-31.2-15.5 0-26.9 11.8-28.8 26.7L388 47.9c5.7-20.4 21.8-35.8 42-41l66.3 26.7z" class="st4"/></g><path d="M744.1 33.3c-17 0-29 14.2-29 31.2 0 2 .2 3.9.5 5.8 2.4 14.3 13.5 25.4 28.6 25.4 5.5 0 10.4-1.5 14.6-4 8.9-5.4 14.4-15.6 14.4-27.1-.1-17.1-12.1-31.3-29.1-31.3zm0 90.7c-32.6 0-59.5-25.5-59.5-59.5 0-2.9.2-5.8.6-8.6 2.7-19.5 14.5-35.4 30.7-44 8.4-4.5 18.1-7 28.2-7 30.2 0 55.6 21.9 59.1 52.2.3 2.4.4 4.8.4 7.2 0 17-6.7 31.9-17.5 42.5-10.8 10.8-25.7 17.2-42 17.2z" class="st5"/><path d="M870.2 88.6c0 2.9-2 5.5-5.5 6.8-1.6.6-3.6 1-5.8 1-15.6 0-25.5-10.6-25.5-10.6l-17 22.7s14.2 15.6 42.5 15.6c12.5 0 24.2-4.3 32.1-11.8 6.4-6 10.4-14.1 10.4-23.6 0-34-53.8-36.8-53.8-48.2 0-3.2 3.2-6 8.4-7.2 1.7-.4 3.7-.6 5.8-.6 11.3 0 17.7 5.7 17.7 5.7l16.3-22S881.6 5.1 859 5.1c-11.3 0-21.8 4.4-29.2 11.5-6.5 6.3-10.5 14.6-10.5 23.9-.1 33.9 50.9 35.3 50.9 48.1z" class="st6"/><path d="M653.4 58.8c3.6-4.6 5.7-9.2 6.6-14.1.3-1.9.5-3.8.5-5.7 0-17.2-14-31.2-31.2-31.2h-53.8v113.4h58.8c12.7 0 23.8-6.8 29.9-17.1 3.1-5.2 4.8-11.2 4.8-17.7 0-11.8-5.6-21.9-15.6-27.6zm-48.8-26.2h17.7c5.5 0 9.9 4.4 9.9 9.9s-4.4 9.9-9.9 9.9h-17.7V32.6zM628 95.7h-23.4V74.4H628c5.9 0 10.6 4.8 10.6 10.6 0 2.5-.9 4.8-2.3 6.6-2 2.5-5 4.1-8.3 4.1z" class="st3"/><path d="M969.3 88.6c0 4.3-4.3 7.8-11.3 7.8-3.9 0-7.4-.7-10.6-1.7-9.4-3-14.9-9-14.9-9l-17 22.7S929.7 124 958 124c7 0 13.7-1.3 19.6-3.8 13.4-5.6 22.9-16.9 22.9-31.6 0-3.9-.7-7.4-2-10.6-5.1-12.6-19-19.6-31.2-24.8-11.1-4.7-20.6-8-20.6-12.8 0-1 .3-1.9.8-2.7 1.9-2.9 6.8-5.1 13.3-5.1 11.3 0 17.7 5.7 17.7 5.7l16.3-22S980.6 5 958 5c-13.3 0-25.4 6.1-32.7 15.5-4.4 5.6-6.9 12.5-6.9 19.9-.1 34 50.9 35.4 50.9 48.2z" class="st7"/><path d="M40.1 88.8v32.4H9V64.7z" style="fill:#6c471b"/><path d="M66.8 50.3h13V7.8h31.1V80zM9 7.8h31.1v23z" class="st9"/><path d="M110.9 22.3V7.8H89.7z" class="st1"/><path d="M235.6 95.1c-8.3 19.3-27.5 29-46.7 28.9-2.5 0-4.9-.2-7.4-.5-14.6-1.9-28.4-9.5-36.4-22.8-4.5-7.4-7.2-16.7-7.2-27.7V39L169 57.7v18.1c0 14.2 11.3 19.8 19.8 19.8 7.4 0 17.1-4.3 19.3-14.9l27.5 14.4z" class="st9"/><path d="M239.8 38V7.8h-31.1v13.8z" class="st10"/><path d="M298.4 8.7c6.5-2.4 13.5-3.6 20.8-3.6C341.8 5 356 16.3 356 16.3l-10.6 13.2" class="st4"/><path d="M261.8 48.4c5.1-18.8 18.9-33.3 36.6-39.8l47 20.8-7.1 8.8s-6.4-5.7-19.1-5.7c-17 0-29 14.9-29 31.9" class="st10"/><path d="M367.3 97.6V51h-51v24.8h24.1v8.6z" class="st11"/><g class="st2"><path d="M497.7 92.9c-10.1 18.8-29.9 31.1-52.5 31.1-32.6 0-59.5-25.5-59.5-59.5 0-5.8.8-11.4 2.3-16.6L416.5 60c-.2 1.5-.3 2.9-.3 4.5 0 17 12 31.2 29 31.2 10.6 0 19.3-5.5 24.3-13.8l28.2 11z" class="st11"/></g><path d="M660 44.7c.3-1.9.5-3.8.5-5.7 0-17.2-14-31.2-31.2-31.2h-53.8L660 44.7z" class="st5"/><path d="M636.3 91.6c-1.9 2.5-5 4-8.3 4h-23.4V78.8l-29-13.2v55.6h58.8c12.7 0 23.8-6.8 29.9-17.1l-28-12.5z" class="st4"/><path d="M715.9 12c8.4-4.5 18.1-7 28.2-7 30.2 0 55.6 21.9 59.1 52.2L715.9 12z" class="st6"/><path d="M715.5 70.3c2.4 14.3 13.5 25.4 28.6 25.4 5.5 0 10.4-1.5 14.6-4l27.3 15.4c-10.8 10.6-25.7 17-42 17-32.6 0-59.5-25.5-59.5-59.5 0-2.9.2-5.8.6-8.6l30.4 14.3z" class="st3"/><path d="M855.9 33.3c1.7-.4 3.7-.6 5.8-.6 11.3 0 17.7 5.7 17.7 5.7l16.3-22S881.5 5.1 858.9 5.1c-11.3 0-21.8 4.4-29.2 11.5" class="st7"/><path d="M864.6 95.4c-1.6.6-3.6 1-5.8 1-15.6 0-25.5-10.6-25.5-10.6l-17 22.7s14.2 15.6 42.5 15.6c12.5 0 24.2-4.3 32.1-11.8" class="st5"/><path d="M947.5 37.7c1.9-2.9 6.8-5.1 13.3-5.1 11.3 0 17.7 5.7 17.7 5.7l16.3-22S980.6 5 958 5c-13.3 0-25.4 6.1-32.7 15.5l22.2 17.2z" style="fill:#e11b1d"/><path d="M977.6 120.2c-5.9 2.5-12.6 3.8-19.6 3.8-28.3 0-42.5-15.6-42.5-15.6l17-22.7s5.6 6 14.9 9l30.2 25.5z" class="st6"/><path d="M181.5 123.5c-14.6-1.9-28.4-9.5-36.4-22.8l36.4 22.8z" class="st0"/></svg>
