<?xml version="1.0" encoding="UTF-8"?>
<svg xmlns="http://www.w3.org/2000/svg" xmlns:xlink="http://www.w3.org/1999/xlink" width="24px" height="24px" viewBox="0 0 24 24" version="1.1">
  <title>Pinterest_white</title>
  <g id="Pinterest_white" stroke="none" stroke-width="1" fill="none" fill-rule="evenodd">
    <g id="Icon/Social/Light/Pinterest" transform="translate(3.000000, 2.959858)" fill="#FFFFFF" fill-rule="nonzero">
      <g id="Pinterest">
        <path d="M17.4374584,8.71872921 C17.4374584,13.535124 13.535124,17.4374584 8.71872921,17.4374584 C7.81874509,17.4374584 6.9538828,17.3003356 6.13825288,17.0472387 C6.49335076,16.467162 7.02419514,15.5179455 7.22109027,14.7620879 L7.76247463,12.6878741 L7.76247463,12.6878741 C8.04726017,13.2292585 8.87693196,13.6898248 9.759338,13.6898248 C12.3890467,13.6898248 14.2839435,11.2710531 14.2839435,8.26520094 C14.2839435,5.38593153 11.9320165,3.2308654 8.90858624,3.2308654 C5.14687646,3.2308654 3.14647687,5.75507127 3.14647687,8.50779222 C3.14647687,9.7874904 3.82852023,11.3800579 4.91482517,11.8862861 C5.08006601,11.9636365 5.16795643,11.9284803 5.20661448,11.7702776 L5.44920576,10.782403 L5.44920576,10.782403 C5.46606973,10.7120907 5.46269694,10.648524 5.42467335,10.5827028 L5.38943341,10.5327737 C5.03436986,10.0933216 4.74608243,9.29176786 4.74608243,8.54294838 C4.74608243,6.61989923 6.20156145,4.76015863 8.68357305,4.76015863 C10.8245973,4.76015863 12.3257381,6.21913953 12.3257381,8.3073952 C12.3257381,10.6663946 11.1339647,12.3011563 9.58355717,12.3011563 C8.7292692,12.3011563 8.08591822,11.5944967 8.29335333,10.7261326 C8.5394465,9.68902567 9.01405474,8.57106645 9.01405474,7.82224698 C9.01405474,7.15427982 8.65545498,6.59528304 7.91013739,6.59528304 C7.03473512,6.59528304 6.3316118,7.49880338 6.3316118,8.71169111 C6.3316118,9.48512677 6.59178116,10.0054312 6.59178116,10.0054312 L5.57225234,14.3366777 L5.57225234,14.3366777 C5.39647151,15.0890334 5.46678384,16.1507565 5.54059806,16.8398036 C2.299227,15.5706797 0,12.4136285 0,8.71872921 C0,3.90233445 3.90233445,0 8.71872921,0 C13.535124,0 17.4374584,3.90233445 17.4374584,8.71872921 Z" id=""></path>
      </g>
    </g>
  </g>
</svg>
