<?xml version="1.0" encoding="UTF-8"?>
<svg xmlns="http://www.w3.org/2000/svg" xmlns:xlink="http://www.w3.org/1999/xlink" width="24px" height="24px" viewBox="0 0 24 24" version="1.1">
  <title>Twitter_white 2</title>
  <g id="Twitter_white" stroke="none" stroke-width="1" fill="none" fill-rule="evenodd">
    <g id="tiktok" transform="translate(5.000000, 4.000000)" fill="#FFFFFF" fill-rule="nonzero">
      <path d="M7.35280546,0.0133331663 C8.23238372,0 9.10524765,0.00666658313 9.97811158,0 C10.0318263,1.01998722 10.4011149,2.05997419 11.1531207,2.77996516 C11.9051266,3.51995589 12.965992,3.85995163 14,3.97328354 L14,6.65991654 C13.0331353,6.62658363 12.0595563,6.42658613 11.1799781,6.01325798 C10.7972608,5.83992682 10.4414009,5.61992958 10.0922553,5.39326575 C10.085541,7.33990802 10.0989697,9.28655029 10.0788267,11.226526 C10.0251119,12.1598476 9.71625241,13.0865027 9.17239103,13.8531597 C8.29281277,15.1331437 6.76865806,15.9664666 5.20421732,15.9931329 C4.244067,16.0464656 3.28391668,15.7864688 2.46476745,15.3064749 C1.10847119,14.5131515 0.155035204,13.0598363 0.0140341073,11.4998559 C0.000605431473,11.1665267 -0.00610890645,10.8331976 0.0073197694,10.506535 C0.128177852,9.23988421 0.759325617,8.02656608 1.73961895,7.19990978 C2.85419905,6.23992181 4.41192545,5.77992757 5.86893678,6.05325748 C5.88236545,7.03991178 5.84207942,8.02656608 5.84207942,9.01322039 C5.17735997,8.79988973 4.39849677,8.85988897 3.81434937,9.25988396 C3.39134608,9.53321387 3.06905786,9.95320861 2.90119941,10.426536 C2.76019832,10.7665317 2.80048435,11.1398604 2.80719868,11.4998559 C2.96834279,12.5931755 4.02920819,13.513164 5.15721696,13.4131652 C5.9092228,13.4064987 6.62765696,12.9731708 7.01708856,12.3398454 C7.14466098,12.1198481 7.28566208,11.8931843 7.29237642,11.6331876 C7.35951979,10.4398692 7.33266244,9.25321738 7.33937678,8.059899 C7.34609112,5.373266 7.33266244,2.69329958 7.35280546,0.0133331663 L7.35280546,0.0133331663 Z" id="Path"></path>
    </g>
  </g>
</svg>
