<?xml version="1.0" encoding="UTF-8"?>
<svg xmlns="http://www.w3.org/2000/svg" xmlns:xlink="http://www.w3.org/1999/xlink" width="24px" height="24px" viewBox="0 0 24 24" version="1.1">
  <title>Youtube_white</title>
  <defs>
    <polygon id="path-1" points="0 0 20 0 20 14 0 14"></polygon>
  </defs>
  <g id="Youtube_white" stroke="none" stroke-width="1" fill="none" fill-rule="evenodd">
    <g id="YouTube" transform="translate(2.000000, 5.000000)">
      <mask id="mask-2" fill="white">
        <use xlink:href="#path-1"></use>
      </mask>
      <g id="Clip-2"></g>
      <path d="M7.95454545,9.95456125 L7.95454545,4.04542746 L13.1818182,7.00010726 L7.95454545,9.95456125 Z M19.5820455,2.18613563 C19.3520455,1.32558655 18.6743182,0.647940845 17.8138636,0.417956789 C16.2542045,-1.12903317e-05 10,-1.12903317e-05 10,-1.12903317e-05 C10,-1.12903317e-05 3.74579545,-1.12903317e-05 2.18613636,0.417956789 C1.32568182,0.647940845 0.647954545,1.32558655 0.417954545,2.18613563 C0,3.74578205 0,6.99998871 0,6.99998871 C0,6.99998871 0,10.2540938 0.417954545,11.8138531 C0.647954545,12.6744022 1.32568182,13.3520479 2.18613636,13.5821448 C3.74579545,14 10,14 10,14 C10,14 16.2542045,14 17.8138636,13.5821448 C18.6743182,13.3520479 19.3520455,12.6744022 19.5820455,11.8138531 C20,10.2540938 20,6.99998871 20,6.99998871 C20,6.99998871 20,3.74578205 19.5820455,2.18613563 L19.5820455,2.18613563 Z" id="Fill-1" fill="#FFFFFF" mask="url(#mask-2)"></path>
    </g>
  </g>
</svg>
